<mxfile host="Electron" agent="Mozilla/5.0 (Windows NT 10.0; Win64; x64) AppleWebKit/537.36 (KHTML, like Gecko) draw.io/28.0.6 Chrome/138.0.7204.100 Electron/37.2.3 Safari/537.36" version="28.0.6">
  <diagram name="PÃ¡gina-1" id="wOxepH0-emv8sRLBfL2_">
    <mxGraphModel dx="925" dy="607" grid="1" gridSize="10" guides="1" tooltips="1" connect="1" arrows="1" fold="1" page="1" pageScale="1" pageWidth="827" pageHeight="1169" math="0" shadow="0">
      <root>
        <mxCell id="0" />
        <mxCell id="1" parent="0" />
        <mxCell id="X0bLQcjUNCMiPxWnqUvP-40" style="edgeStyle=orthogonalEdgeStyle;rounded=0;orthogonalLoop=1;jettySize=auto;html=1;exitX=1;exitY=0.5;exitDx=0;exitDy=0;entryX=0;entryY=0.5;entryDx=0;entryDy=0;endArrow=none;endFill=0;" edge="1" parent="1" source="X0bLQcjUNCMiPxWnqUvP-1" target="X0bLQcjUNCMiPxWnqUvP-39">
          <mxGeometry relative="1" as="geometry">
            <Array as="points">
              <mxPoint x="334" y="125" />
            </Array>
          </mxGeometry>
        </mxCell>
        <mxCell id="X0bLQcjUNCMiPxWnqUvP-44" value="(1,n)" style="edgeLabel;html=1;align=center;verticalAlign=middle;resizable=0;points=[];" vertex="1" connectable="0" parent="X0bLQcjUNCMiPxWnqUvP-40">
          <mxGeometry x="-0.7396" y="-2" relative="1" as="geometry">
            <mxPoint as="offset" />
          </mxGeometry>
        </mxCell>
        <mxCell id="X0bLQcjUNCMiPxWnqUvP-1" value="obra" style="rounded=0;whiteSpace=wrap;html=1;" vertex="1" parent="1">
          <mxGeometry x="167.5" y="110" width="70" height="30" as="geometry" />
        </mxCell>
        <mxCell id="X0bLQcjUNCMiPxWnqUvP-46" style="edgeStyle=orthogonalEdgeStyle;rounded=0;orthogonalLoop=1;jettySize=auto;html=1;exitX=1;exitY=0.5;exitDx=0;exitDy=0;entryX=0;entryY=0.5;entryDx=0;entryDy=0;endArrow=none;endFill=0;" edge="1" parent="1" source="X0bLQcjUNCMiPxWnqUvP-2" target="X0bLQcjUNCMiPxWnqUvP-45">
          <mxGeometry relative="1" as="geometry">
            <Array as="points">
              <mxPoint x="291" y="505" />
              <mxPoint x="291" y="440" />
            </Array>
          </mxGeometry>
        </mxCell>
        <mxCell id="X0bLQcjUNCMiPxWnqUvP-56" value="(1,n)" style="edgeLabel;html=1;align=center;verticalAlign=middle;resizable=0;points=[];" vertex="1" connectable="0" parent="X0bLQcjUNCMiPxWnqUvP-46">
          <mxGeometry x="-0.6459" relative="1" as="geometry">
            <mxPoint x="1" as="offset" />
          </mxGeometry>
        </mxCell>
        <mxCell id="X0bLQcjUNCMiPxWnqUvP-2" value="actor" style="whiteSpace=wrap;html=1;" vertex="1" parent="1">
          <mxGeometry x="172.5" y="490" width="60" height="30" as="geometry" />
        </mxCell>
        <mxCell id="X0bLQcjUNCMiPxWnqUvP-5" value="Teatro" style="whiteSpace=wrap;html=1;" vertex="1" parent="1">
          <mxGeometry x="500" y="315" width="60" height="30" as="geometry" />
        </mxCell>
        <mxCell id="X0bLQcjUNCMiPxWnqUvP-31" style="edgeStyle=orthogonalEdgeStyle;rounded=0;orthogonalLoop=1;jettySize=auto;html=1;exitX=1;exitY=0.5;exitDx=0;exitDy=0;entryX=0.5;entryY=0;entryDx=0;entryDy=0;endArrow=none;endFill=0;" edge="1" parent="1" source="X0bLQcjUNCMiPxWnqUvP-7" target="X0bLQcjUNCMiPxWnqUvP-1">
          <mxGeometry relative="1" as="geometry" />
        </mxCell>
        <mxCell id="X0bLQcjUNCMiPxWnqUvP-7" value="&lt;u&gt;nombre&lt;/u&gt;" style="ellipse;whiteSpace=wrap;html=1;" vertex="1" parent="1">
          <mxGeometry x="80" y="50" width="80" height="30" as="geometry" />
        </mxCell>
        <mxCell id="X0bLQcjUNCMiPxWnqUvP-30" style="edgeStyle=orthogonalEdgeStyle;rounded=0;orthogonalLoop=1;jettySize=auto;html=1;exitX=1;exitY=0.5;exitDx=0;exitDy=0;endArrow=none;endFill=0;" edge="1" parent="1" source="X0bLQcjUNCMiPxWnqUvP-8" target="X0bLQcjUNCMiPxWnqUvP-1">
          <mxGeometry relative="1" as="geometry" />
        </mxCell>
        <mxCell id="X0bLQcjUNCMiPxWnqUvP-8" value="genero" style="ellipse;whiteSpace=wrap;html=1;" vertex="1" parent="1">
          <mxGeometry x="80" y="10" width="80" height="20" as="geometry" />
        </mxCell>
        <mxCell id="X0bLQcjUNCMiPxWnqUvP-26" style="edgeStyle=orthogonalEdgeStyle;rounded=0;orthogonalLoop=1;jettySize=auto;html=1;exitX=0;exitY=0.5;exitDx=0;exitDy=0;entryX=0.5;entryY=1;entryDx=0;entryDy=0;endArrow=none;endFill=0;" edge="1" parent="1" source="X0bLQcjUNCMiPxWnqUvP-11" target="X0bLQcjUNCMiPxWnqUvP-2">
          <mxGeometry relative="1" as="geometry" />
        </mxCell>
        <mxCell id="X0bLQcjUNCMiPxWnqUvP-11" value="nombre" style="ellipse;whiteSpace=wrap;html=1;" vertex="1" parent="1">
          <mxGeometry x="290" y="540" width="80" height="20" as="geometry" />
        </mxCell>
        <mxCell id="X0bLQcjUNCMiPxWnqUvP-27" style="edgeStyle=orthogonalEdgeStyle;rounded=0;orthogonalLoop=1;jettySize=auto;html=1;exitX=0;exitY=0.5;exitDx=0;exitDy=0;endArrow=none;endFill=0;" edge="1" parent="1" source="X0bLQcjUNCMiPxWnqUvP-12">
          <mxGeometry relative="1" as="geometry">
            <mxPoint x="210" y="550" as="targetPoint" />
          </mxGeometry>
        </mxCell>
        <mxCell id="X0bLQcjUNCMiPxWnqUvP-12" value="&lt;u&gt;apellido&lt;/u&gt;" style="ellipse;whiteSpace=wrap;html=1;" vertex="1" parent="1">
          <mxGeometry x="290" y="580" width="80" height="30" as="geometry" />
        </mxCell>
        <mxCell id="X0bLQcjUNCMiPxWnqUvP-28" style="edgeStyle=orthogonalEdgeStyle;rounded=0;orthogonalLoop=1;jettySize=auto;html=1;exitX=0;exitY=0.5;exitDx=0;exitDy=0;endArrow=none;endFill=0;" edge="1" parent="1" source="X0bLQcjUNCMiPxWnqUvP-13">
          <mxGeometry relative="1" as="geometry">
            <mxPoint x="210" y="590" as="targetPoint" />
          </mxGeometry>
        </mxCell>
        <mxCell id="X0bLQcjUNCMiPxWnqUvP-13" value="fecha de nacimiento" style="ellipse;whiteSpace=wrap;html=1;" vertex="1" parent="1">
          <mxGeometry x="290" y="630" width="80" height="30" as="geometry" />
        </mxCell>
        <mxCell id="X0bLQcjUNCMiPxWnqUvP-29" style="edgeStyle=orthogonalEdgeStyle;rounded=0;orthogonalLoop=1;jettySize=auto;html=1;exitX=0;exitY=0.5;exitDx=0;exitDy=0;endArrow=none;endFill=0;" edge="1" parent="1" source="X0bLQcjUNCMiPxWnqUvP-14">
          <mxGeometry relative="1" as="geometry">
            <mxPoint x="210" y="640" as="targetPoint" />
          </mxGeometry>
        </mxCell>
        <mxCell id="X0bLQcjUNCMiPxWnqUvP-14" value="edad" style="ellipse;whiteSpace=wrap;html=1;dashed=1;" vertex="1" parent="1">
          <mxGeometry x="290" y="685" width="80" height="20" as="geometry" />
        </mxCell>
        <mxCell id="X0bLQcjUNCMiPxWnqUvP-35" style="edgeStyle=orthogonalEdgeStyle;rounded=0;orthogonalLoop=1;jettySize=auto;html=1;exitX=1;exitY=0.5;exitDx=0;exitDy=0;entryX=0;entryY=0.5;entryDx=0;entryDy=0;endArrow=none;endFill=0;" edge="1" parent="1" source="X0bLQcjUNCMiPxWnqUvP-16" target="X0bLQcjUNCMiPxWnqUvP-32">
          <mxGeometry relative="1" as="geometry" />
        </mxCell>
        <mxCell id="X0bLQcjUNCMiPxWnqUvP-16" value="&lt;u&gt;personaje&lt;/u&gt;" style="ellipse;whiteSpace=wrap;html=1;" vertex="1" parent="1">
          <mxGeometry x="50" y="345" width="80" height="20" as="geometry" />
        </mxCell>
        <mxCell id="X0bLQcjUNCMiPxWnqUvP-21" style="edgeStyle=orthogonalEdgeStyle;rounded=0;orthogonalLoop=1;jettySize=auto;html=1;exitX=0;exitY=0.5;exitDx=0;exitDy=0;entryX=0.5;entryY=0;entryDx=0;entryDy=0;endArrow=none;endFill=0;" edge="1" parent="1" source="X0bLQcjUNCMiPxWnqUvP-17" target="X0bLQcjUNCMiPxWnqUvP-5">
          <mxGeometry relative="1" as="geometry">
            <Array as="points">
              <mxPoint x="530" y="130" />
              <mxPoint x="530" y="315" />
            </Array>
          </mxGeometry>
        </mxCell>
        <mxCell id="X0bLQcjUNCMiPxWnqUvP-17" value="&lt;u&gt;nombre&lt;/u&gt;" style="ellipse;whiteSpace=wrap;html=1;" vertex="1" parent="1">
          <mxGeometry x="540" y="120" width="80" height="20" as="geometry" />
        </mxCell>
        <mxCell id="X0bLQcjUNCMiPxWnqUvP-22" style="edgeStyle=orthogonalEdgeStyle;rounded=0;orthogonalLoop=1;jettySize=auto;html=1;exitX=0;exitY=0.5;exitDx=0;exitDy=0;endArrow=none;endFill=0;" edge="1" parent="1" source="X0bLQcjUNCMiPxWnqUvP-18">
          <mxGeometry relative="1" as="geometry">
            <mxPoint x="530" y="130" as="targetPoint" />
          </mxGeometry>
        </mxCell>
        <mxCell id="X0bLQcjUNCMiPxWnqUvP-18" value="&lt;u&gt;direccion&lt;/u&gt;" style="ellipse;whiteSpace=wrap;html=1;" vertex="1" parent="1">
          <mxGeometry x="540" y="80" width="80" height="30" as="geometry" />
        </mxCell>
        <mxCell id="X0bLQcjUNCMiPxWnqUvP-23" style="edgeStyle=orthogonalEdgeStyle;rounded=0;orthogonalLoop=1;jettySize=auto;html=1;exitX=0;exitY=0.5;exitDx=0;exitDy=0;endArrow=none;endFill=0;" edge="1" parent="1" source="X0bLQcjUNCMiPxWnqUvP-19">
          <mxGeometry relative="1" as="geometry">
            <mxPoint x="530" y="100" as="targetPoint" />
            <Array as="points">
              <mxPoint x="530" y="60" />
              <mxPoint x="530" y="90" />
              <mxPoint x="531" y="90" />
              <mxPoint x="531" y="100" />
            </Array>
          </mxGeometry>
        </mxCell>
        <mxCell id="X0bLQcjUNCMiPxWnqUvP-19" value="capacidad" style="ellipse;whiteSpace=wrap;html=1;" vertex="1" parent="1">
          <mxGeometry x="540" y="50" width="80" height="20" as="geometry" />
        </mxCell>
        <mxCell id="X0bLQcjUNCMiPxWnqUvP-24" style="edgeStyle=orthogonalEdgeStyle;rounded=0;orthogonalLoop=1;jettySize=auto;html=1;exitX=0;exitY=0.5;exitDx=0;exitDy=0;endArrow=none;endFill=0;" edge="1" parent="1" source="X0bLQcjUNCMiPxWnqUvP-20">
          <mxGeometry relative="1" as="geometry">
            <mxPoint x="530" y="60" as="targetPoint" />
          </mxGeometry>
        </mxCell>
        <mxCell id="X0bLQcjUNCMiPxWnqUvP-20" value="ciudad" style="ellipse;whiteSpace=wrap;html=1;" vertex="1" parent="1">
          <mxGeometry x="540" y="10" width="80" height="20" as="geometry" />
        </mxCell>
        <mxCell id="X0bLQcjUNCMiPxWnqUvP-37" style="edgeStyle=orthogonalEdgeStyle;rounded=0;orthogonalLoop=1;jettySize=auto;html=1;exitX=0.5;exitY=0;exitDx=0;exitDy=0;entryX=0.5;entryY=1;entryDx=0;entryDy=0;endArrow=none;endFill=0;" edge="1" parent="1" source="X0bLQcjUNCMiPxWnqUvP-32" target="X0bLQcjUNCMiPxWnqUvP-1">
          <mxGeometry relative="1" as="geometry" />
        </mxCell>
        <mxCell id="X0bLQcjUNCMiPxWnqUvP-42" value="(1,n)" style="edgeLabel;html=1;align=center;verticalAlign=middle;resizable=0;points=[];" vertex="1" connectable="0" parent="X0bLQcjUNCMiPxWnqUvP-37">
          <mxGeometry x="0.0984" y="1" relative="1" as="geometry">
            <mxPoint as="offset" />
          </mxGeometry>
        </mxCell>
        <mxCell id="X0bLQcjUNCMiPxWnqUvP-32" value="actua" style="rhombus;whiteSpace=wrap;html=1;" vertex="1" parent="1">
          <mxGeometry x="170" y="315" width="65" height="80" as="geometry" />
        </mxCell>
        <mxCell id="X0bLQcjUNCMiPxWnqUvP-36" value="(1,n)" style="edgeStyle=orthogonalEdgeStyle;rounded=0;orthogonalLoop=1;jettySize=auto;html=1;exitX=0.5;exitY=0;exitDx=0;exitDy=0;entryX=0.496;entryY=0.924;entryDx=0;entryDy=0;entryPerimeter=0;endArrow=none;endFill=0;" edge="1" parent="1" source="X0bLQcjUNCMiPxWnqUvP-2" target="X0bLQcjUNCMiPxWnqUvP-32">
          <mxGeometry relative="1" as="geometry" />
        </mxCell>
        <mxCell id="X0bLQcjUNCMiPxWnqUvP-41" style="edgeStyle=orthogonalEdgeStyle;rounded=0;orthogonalLoop=1;jettySize=auto;html=1;exitX=1;exitY=0.5;exitDx=0;exitDy=0;entryX=0;entryY=0.5;entryDx=0;entryDy=0;endArrow=none;endFill=0;" edge="1" parent="1" source="X0bLQcjUNCMiPxWnqUvP-39" target="X0bLQcjUNCMiPxWnqUvP-5">
          <mxGeometry relative="1" as="geometry" />
        </mxCell>
        <mxCell id="X0bLQcjUNCMiPxWnqUvP-43" value="(1,1)" style="edgeLabel;html=1;align=center;verticalAlign=middle;resizable=0;points=[];" vertex="1" connectable="0" parent="X0bLQcjUNCMiPxWnqUvP-41">
          <mxGeometry x="0.0612" y="-3" relative="1" as="geometry">
            <mxPoint as="offset" />
          </mxGeometry>
        </mxCell>
        <mxCell id="X0bLQcjUNCMiPxWnqUvP-39" value="se presenta" style="rhombus;whiteSpace=wrap;html=1;" vertex="1" parent="1">
          <mxGeometry x="340" y="105" width="80" height="40" as="geometry" />
        </mxCell>
        <mxCell id="X0bLQcjUNCMiPxWnqUvP-47" style="edgeStyle=orthogonalEdgeStyle;rounded=0;orthogonalLoop=1;jettySize=auto;html=1;exitX=1;exitY=0.5;exitDx=0;exitDy=0;entryX=0.5;entryY=1;entryDx=0;entryDy=0;endArrow=none;endFill=0;" edge="1" parent="1" source="X0bLQcjUNCMiPxWnqUvP-45" target="X0bLQcjUNCMiPxWnqUvP-5">
          <mxGeometry relative="1" as="geometry" />
        </mxCell>
        <mxCell id="X0bLQcjUNCMiPxWnqUvP-58" value="(1,n)" style="edgeLabel;html=1;align=center;verticalAlign=middle;resizable=0;points=[];" vertex="1" connectable="0" parent="X0bLQcjUNCMiPxWnqUvP-47">
          <mxGeometry x="-0.4021" y="1" relative="1" as="geometry">
            <mxPoint as="offset" />
          </mxGeometry>
        </mxCell>
        <mxCell id="X0bLQcjUNCMiPxWnqUvP-48" style="edgeStyle=orthogonalEdgeStyle;rounded=0;orthogonalLoop=1;jettySize=auto;html=1;exitX=0.5;exitY=1;exitDx=0;exitDy=0;endArrow=none;endFill=0;" edge="1" parent="1" source="X0bLQcjUNCMiPxWnqUvP-53">
          <mxGeometry relative="1" as="geometry">
            <mxPoint x="390.2941176470588" y="510" as="targetPoint" />
          </mxGeometry>
        </mxCell>
        <mxCell id="X0bLQcjUNCMiPxWnqUvP-49" style="edgeStyle=orthogonalEdgeStyle;rounded=0;orthogonalLoop=1;jettySize=auto;html=1;exitX=0.5;exitY=0;exitDx=0;exitDy=0;endArrow=none;endFill=0;" edge="1" parent="1" source="X0bLQcjUNCMiPxWnqUvP-45">
          <mxGeometry relative="1" as="geometry">
            <mxPoint x="390.2941176470588" y="360" as="targetPoint" />
          </mxGeometry>
        </mxCell>
        <mxCell id="X0bLQcjUNCMiPxWnqUvP-45" value="trabaja en" style="rhombus;whiteSpace=wrap;html=1;" vertex="1" parent="1">
          <mxGeometry x="350" y="420" width="80" height="40" as="geometry" />
        </mxCell>
        <mxCell id="X0bLQcjUNCMiPxWnqUvP-51" value="" style="edgeStyle=orthogonalEdgeStyle;rounded=0;orthogonalLoop=1;jettySize=auto;html=1;endArrow=none;endFill=0;" edge="1" parent="1" source="X0bLQcjUNCMiPxWnqUvP-50" target="X0bLQcjUNCMiPxWnqUvP-45">
          <mxGeometry relative="1" as="geometry" />
        </mxCell>
        <mxCell id="X0bLQcjUNCMiPxWnqUvP-50" value="&lt;u&gt;nombre&lt;/u&gt;" style="ellipse;whiteSpace=wrap;html=1;" vertex="1" parent="1">
          <mxGeometry x="352" y="330" width="76" height="20" as="geometry" />
        </mxCell>
        <mxCell id="X0bLQcjUNCMiPxWnqUvP-54" value="" style="edgeStyle=orthogonalEdgeStyle;rounded=0;orthogonalLoop=1;jettySize=auto;html=1;exitX=0.5;exitY=1;exitDx=0;exitDy=0;endArrow=none;endFill=0;" edge="1" parent="1" source="X0bLQcjUNCMiPxWnqUvP-45" target="X0bLQcjUNCMiPxWnqUvP-53">
          <mxGeometry relative="1" as="geometry">
            <mxPoint x="390.2941176470588" y="510" as="targetPoint" />
            <mxPoint x="390" y="460" as="sourcePoint" />
          </mxGeometry>
        </mxCell>
        <mxCell id="X0bLQcjUNCMiPxWnqUvP-53" value="&lt;u&gt;nombre&lt;/u&gt;" style="ellipse;whiteSpace=wrap;html=1;" vertex="1" parent="1">
          <mxGeometry x="380" y="510" width="70" height="20" as="geometry" />
        </mxCell>
      </root>
    </mxGraphModel>
  </diagram>
</mxfile>
